# xmcd
#
# Track frame offsets: 
#        150
#        68920
#        107497
#        206405
#        219642
#        233540
#        252377
#        266600
#
# Disc length: 3747 seconds
#
# Revision: 3
# Processed by: cddbd v1.5.2PL0 Copyright (c) Steve Scherf et al.
# Submitted via: ExactAudioCopy v0.99pb4
#
DISCID=6e0ea108
DTITLE=Eberhard Schoener - Trance-Mission
DYEAR=1991
DGENRE=Rock/Bali
TTITLE0=Beyond where eyes can see
TTITLE1=Before the shadow play
TTITLE2=Can you see the voices calling
TTITLE3=Solitude
TTITLE4=Manuk Anguci
TTITLE5=The flash of grass is gone
TTITLE6=Kebjar Trompong
TTITLE7=Walking through the rice fields
EXTD=
EXTT0=
EXTT1=
EXTT2=
EXTT3=
EXTT4=
EXTT5=
EXTT6=
EXTT7=
PLAYORDER=
